<svg xmlns="http://www.w3.org/2000/svg" version="1.1" x="0px" y="0px"
     viewBox="0 0 100 100">
    <defs>
        <mask id="water-level">
            <rect x="0" y="0" width="100" height="100" fill="#FFF"/>
        </mask>
    </defs>

    <path d="M 67.174 43.325 C 63.547 33.598 53.168 15.794 49.41 9.47 C 46.062 15.925 36.712 33.799 31.082 43.01 C 24.911 53.084 21.396 68.46 26.613 78.359 C 30.266 85.29 37.677 89.089 48.641 89.65 C 48.764 89.655 48.884 89.677 48.999 89.712 C 49.015 89.711 49.032 89.71 49.048 89.709 C 49.264 89.699 49.477 89.688 49.686 89.688 C 49.891 89.688 50.097 89.698 50.306 89.709 C 50.326 89.71 50.347 89.711 50.368 89.713 C 50.483 89.678 50.604 89.657 50.729 89.65 C 59.505 89.201 65.694 86.329 69.125 81.114 C 72.65 75.756 75.174 64.85 67.174 43.325 Z"
          fill="#00F" mask="url(#water-level)" style="paint-order: stroke; stroke-miterlimit: 18.52; stroke-linejoin: round; stroke-width: 4px; stroke: #000;">

    </path>
    <path d="M44.144,77.683c-13.194-6.775-7.447-20.137-7.196-20.702c0.337-0.755,0-1.642-0.756-1.979   c-0.755-0.341-1.643-0.002-1.982,0.754c-0.074,0.164-7.183,16.511,8.564,24.596c0.219,0.113,0.453,0.166,0.684,0.166   c0.545,0,1.07-0.297,1.336-0.814C45.172,78.965,44.881,78.061,44.144,77.683z"
          fill="#000">

    </path>
    <path d="M69.985,42.28c-4.54-12.175-18.786-35.674-19.39-36.668c-0.282-0.464-0.779-0.734-1.336-0.72   c-0.543,0.02-1.033,0.331-1.281,0.814c-0.125,0.244-12.6,24.524-19.456,35.739c-6.409,10.463-10.57,26.916-4.563,38.313   c4.121,7.819,12.197,12.145,24.009,12.859c0.381,0.155,0.825,0.11,1.236,0.089c0.319-0.017,0.624-0.019,0.939,0   c0.215,0.012,0.435,0.022,0.662,0.022c0.188,0,0.366-0.038,0.532-0.107c9.544-0.579,16.369-3.895,20.292-9.857   C77.313,74.127,76.76,60.507,69.985,42.28z M69.125,81.114c-3.431,5.215-9.62,8.087-18.396,8.536   c-0.125,0.007-0.246,0.028-0.361,0.063c-0.021-0.002-0.042-0.003-0.062-0.004c-0.209-0.011-0.415-0.021-0.62-0.021   c-0.209,0-0.422,0.011-0.638,0.021c-0.016,0.001-0.033,0.002-0.049,0.003c-0.115-0.035-0.235-0.057-0.358-0.062   c-10.964-0.561-18.375-4.36-22.028-11.291c-5.217-9.899-1.702-25.275,4.469-35.349c5.63-9.211,14.98-27.085,18.328-33.54   c3.758,6.324,14.137,24.128,17.764,33.855C75.174,64.85,72.65,75.756,69.125,81.114z"
          fill="#000">


    </path>
</svg>